<?xml version="1.0" encoding="UTF-8"?>
<svg id="_레이어_1" data-name="레이어 1" xmlns="http://www.w3.org/2000/svg" viewBox="0 0 430.94 138.61">
  <path d="M53.11,2.73H0v135.88h53.11c19.7,0,34.43-6.29,46.44-18.86,12.01-12.57,18.02-28.93,18.02-49.08s-6.01-36.5-18.02-49.08C87.54,9.01,72.82,2.73,53.11,2.73ZM70.59,92.98c-5.29,5.81-12.32,8.72-21.08,8.72h-10.45v-62.06h10.45c8.77,0,15.8,2.91,21.08,8.72,5.29,5.95,7.93,13.39,7.93,22.31s-2.64,16.36-7.93,22.31Z"/>
  <path d="M168.81,87.38c6.54,6.9,14.96,10.35,25.25,10.35,8.84,0,16.62-2.06,23.34-6.18,6.72-4.12,11.9-9.87,15.53-17.26,3.63-7.39,5.45-15.86,5.45-25.43s-1.82-17.86-5.45-25.25c-3.63-7.39-8.78-13.17-15.44-17.35-6.66-4.18-14.47-6.27-23.43-6.27-10.3,0-18.71,3.45-25.25,10.35l-3.63-7.63h-35.42v135.88h14.24s279.33,0,279.33,0v-28.69h-254.52s0-22.54,0-22.54ZM172.99,37.06c2.78-3.27,6.48-4.91,11.08-4.91s8.11,1.61,10.9,4.82c2.78,3.21,4.18,7.17,4.18,11.9s-1.36,8.54-4.09,11.81c-2.72,3.27-6.39,4.91-10.99,4.91s-8.15-1.6-10.99-4.82c-2.85-3.21-4.27-7.17-4.27-11.9s1.39-8.54,4.18-11.81Z"/>
  <path d="M285.05,67.94c0-8.84,2.33-15.17,6.99-18.98,4.66-3.81,12.14-5.72,22.44-5.72h5.45l1.27-41.05c-2.3-.36-4.54-.55-6.72-.55-13.57,0-23.37,6.72-29.43,20.16l-3.63-19.07h-35.42v95.01h39.06v-29.79Z"/>
  <path d="M341.2,83.93c10.05,9.21,22.46,13.81,37.24,13.81s27.19-4.6,37.24-13.81c10.17-9.08,15.26-20.77,15.26-35.06s-5.09-26.04-15.26-35.24c-10.17-9.08-22.59-13.62-37.24-13.62s-27.07,4.54-37.24,13.62c-10.17,9.21-15.26,20.95-15.26,35.24s5.08,25.98,15.26,35.06ZM367.72,37.06c2.78-3.27,6.36-4.91,10.72-4.91s7.99,1.64,10.9,4.91c2.78,3.39,4.18,7.33,4.18,11.81s-1.39,8.42-4.18,11.81c-2.91,3.27-6.54,4.91-10.9,4.91s-7.93-1.64-10.72-4.91c-2.91-3.27-4.36-7.2-4.36-11.81s1.45-8.54,4.36-11.81Z"/>
</svg>