<?xml version="1.0" encoding="UTF-8"?>
<svg id="_레이어_1" data-name="레이어 1" xmlns="http://www.w3.org/2000/svg" viewBox="0 0 1061.4 631.78">
  <defs>
    <style>
      .cls-1 {
        fill: none;
        stroke: #000;
        stroke-miterlimit: 10;
      }
    </style>
  </defs>
  <path class="cls-1" d="M255.09,346.78l230.44,132.57"/>
  <path class="cls-1" d="M438.09,372.54l87.47,50.32"/>
  <path class="cls-1" d="M481.82,211.58l43.73,24.45"/>
  <path class="cls-1" d="M570.4,264.25l73.41,39.79"/>
  <path class="cls-1" d="M525.32,543.86l37,20.22"/>
  <path class="cls-1" d="M1011.96,279.62l15.41,8.51"/>
  <path class="cls-1" d="M509.43,544.57l52.9,28.56"/>
  <path class="cls-1" d="M509.43,572.19l52.9,27.97"/>
  <path class="cls-1" d="M.53,497.1l231.12,134.25"/>
  <path class="cls-1" d="M119.54,480.41l126.07,73.81"/>
  <path class="cls-1" d="M512.69,384.94l49.63,28.66"/>
  <path class="cls-1" d="M105.01,415.67L1,475.72l230.44,133.04,104.01-60.05c38.58-22.27,56.76-45.08,58.96-70.98,2.2-25.89-13.77-48.7-47.94-68.43-34.16-19.72-73.67-28.95-118.52-27.68-44.85,1.27-84.36,11.77-122.94,34.04ZM292.29,484.28c-.5,11.67-9.33,22.46-26.5,32.38l-20.47,11.82-105.25-60.76,20.47-11.82c17.17-9.91,35.87-15.01,56.08-15.3,20.44-.15,38.23,4.14,53.36,12.88,15.14,8.74,22.57,19.01,22.31,30.81Z"/>
  <path class="cls-1" d="M21,475.72l89.01-51.39c36.48-21.06,74.04-31.45,118.22-32.71,2.6-.07,5.22-.11,7.79-.11,39.57,0,75.04,8.9,105.45,26.46,30.78,17.77,44.83,37.04,42.98,58.92-1.96,22.95-19.11,43.02-54,63.16l-99.01,57.16L21,475.72ZM216.55,430.59c-21.92.31-42.43,5.91-61.01,16.64l-35.47,20.48,125.25,72.31,25.47-14.7c20.25-11.69,30.84-25.35,31.49-40.61v-.2c.36-15.67-8.83-29.03-27.3-39.69-16.35-9.44-35.63-14.22-57.33-14.22h-1.1Z"/>
  <path class="cls-1" d="M394.44,504.2c-2.07,24.18-20.28,45.33-57.3,66.55l-105.06,60.23M245.61,554.22l25.47-14.7c17.72-10.23,28.04-19.66,30.78-32.66"/>
  <path class="cls-1" d="M513.35,385.26l-38.22-22.07c24.51-.63,46.85-6.77,67.01-18.41,17.31-9.99,29.05-20.81,35.23-32.44,6.19-11.63,6.57-23.12,1.15-34.46-5.41-11.34-16.23-21.69-32.46-31.06-16.02-9.25-33.85-15.44-53.49-18.56-19.64-3.12-39.53-2.96-59.66.47-20.13,3.44-38.97,10.23-56.52,20.36-20.16,11.64-30.79,24.54-31.89,38.69l-20.05-3.36-69.37,40.05,230.43,133.04,27.89-16.1h0s48.73-28.13,48.73-28.13M611.1,545.24l449.31-265.62-48.66-28.09-502.33,293.04"/>
  <path class="cls-1" d="M525.95,544.17l485.8-281.1,28.83,16.65-478.26,284.35M275.09,324.47l51.26-29.59,27.29,4.57.85-10.89c.82-10.6,9.88-20.96,26.92-30.8,16.44-9.49,34.34-15.94,53.2-19.16,9.94-1.7,19.96-2.56,29.76-2.56,8.89,0,17.86.71,26.64,2.11,18.34,2.92,35.19,8.76,50.06,17.35,14.37,8.29,23.93,17.28,28.44,26.71,4.06,8.5,3.75,16.59-.96,25.45-5.27,9.9-15.83,19.48-31.4,28.47-18.6,10.74-39.55,16.49-62.26,17.07l-35.47.92,68.94,39.8,33.75,19.38-56.58,32.66-210.43-121.49Z"/>
  <path class="cls-1" d="M582.25,320.35c.37,5.06-.87,10.15-3.72,15.52-5.27,9.9-15.83,19.48-31.4,28.47-13.34,7.7-27.89,12.84-43.44,15.34"/>
  <path class="cls-1" d="M669.8,210.93c-14.99-8.65-21.16-17.49-18.5-26.49,2.66-9,14.07-19.33,34.23-30.97l10.67-6.16-67.13-41.63c-5.13,2.25-9.82,4.6-14.08,7.06-26.56,15.34-34.38,33.01-23.44,53.02l-39.46-14.57-69.37,40.05,161.12,93.02,76.48-44.16-50.53-29.17Z"/>
  <path class="cls-1" d="M653.51,197.19c4.72-7.81,15.4-16.51,32.02-26.11l10.67-6.16"/>
  <path class="cls-1" d="M502.72,191.24l50.31-29.04,60.11,22.19-12.81-23.42c-5.23-9.57-3.63-15.67-1.97-19.42,3.01-6.81,10.29-13.59,21.64-20.14,2.59-1.5,5.39-2.97,8.37-4.4l48.41,30.02c-20.58,12.37-31.76,23.41-35.06,34.58-2.84,9.61-1.14,24,23.09,37.99l35.53,20.51-56.48,32.61-141.12-81.48Z"/>
  <path class="cls-1" d="M640.74,218.1c5.83,6.24,13.43,12.49,23.21,18.58l20.69,12.87"/>
  <path class="cls-1" d="M600.33,160.96c3.72-6.24,7.99-11.67,19.41-19.23,2.5-1.65,5.39-2.97,8.37-4.4"/>
  <path class="cls-1" d="M806.86,154.1c35.3-2.35,67.4-11.88,96.34-28.59,28.93-16.7,45.43-35.24,49.51-55.62,4.52-20.39-5.34-37.59-29.57-51.58-24.23-13.99-54.12-19.74-89.65-17.25-35.32,2.61-67.34,12.2-96.03,28.76-28.69,16.57-45.3,35.05-49.82,55.44-4.31,20.51,5.66,37.77,29.89,51.76,24.23,13.99,54.01,19.69,89.34,17.08ZM779.31,78.23c-.09-6.35,4.13-11.99,12.67-16.92,8.54-4.93,18.43-7.44,29.66-7.52,11.2.17,20.61,2.45,28.21,6.84,7.6,4.39,11.55,9.82,11.84,16.29-.14,6.49-4.49,12.2-13.02,17.13-8.53,4.93-18.31,7.37-29.31,7.31-11.24.08-20.75-2.13-28.56-6.63-7.8-4.51-11.64-10-11.49-16.49Z"/>
  <path class="cls-1" d="M687.08,124.31c2.12,13.62,12.27,25.48,30.44,35.57,24.23,13.46,54.01,18.93,89.34,16.43,35.3-2.26,67.4-11.43,96.34-27.49,28.93-16.07,46.5-33.89,50.58-53.5"/>
  <path class="cls-1" d="M769.31,99.05c.68,5.77,4.76,10.93,12.26,15.47,10,6.06,22.45,8.84,37.38,8.35,14.91-.39,29.63-2,41.03-10.04,5.66-3.99,9.06-6.08,11.72-9.69"/>
  <path class="cls-1" d="M413.71,316.85c.65,5.58,4.61,10.57,11.85,14.96,9.67,5.86,24.69,10.44,39.13,9.96,14.42-.38,24.19-2.95,36.23-9.05,6.02-3.05,11.78-7.43,14.75-12.38"/>
  <path class="cls-1" d="M790.62,144.72c-26.39,0-49.31-5.5-68.1-16.35-12.9-7.45-29.53-19.8-25.11-40.98,3.89-17.43,19.04-33.88,45.04-48.89,27.25-15.73,58.12-24.97,91.77-27.45,5.07-.35,10.12-.54,14.97-.54,26.81,0,50,5.54,68.94,16.48,26.89,15.53,27.04,30.7,24.81,40.76l-.04.2c-3.47,17.34-18.51,33.8-44.71,48.92-27.46,15.85-58.42,25.03-92,27.27-5.35.4-10.57.59-15.57.59ZM769.31,78.19c-.11,7.13,2.69,17.22,16.49,25.19,9.17,5.29,20.25,7.98,32.94,7.98h.98c12.58,0,24-2.91,33.95-8.66,8.07-4.66,17.74-12.87,18.02-25.57v-.34s0-.34,0-.34c-.32-6.92-3.49-16.79-16.83-24.49-9.05-5.23-20.17-7.98-33.05-8.18h-.23c-12.94.09-24.57,3.08-34.59,8.86-8.12,4.69-17.76,12.92-17.67,25.54Z"/>
  <line class="cls-1" x1="1060.41" y1="307.26" x2="1060.41" y2="279.62"/>
  <line class="cls-1" x1="562.02" y1="600.27" x2="1060.41" y2="307.26"/>
  <line class="cls-1" x1="485.52" y1="457.51" x2="485.52" y2="479.35"/>
  <line class="cls-1" x1="254.56" y1="324.5" x2="254.56" y2="347.35"/>
  <line class="cls-1" x1="119.54" y1="467.76" x2="119.54" y2="482.86"/>
  <line class="cls-1" x1="245.77" y1="540.02" x2="245.77" y2="553.69"/>
  <line class="cls-1" x1="302.3" y1="484.53" x2="302.3" y2="511.75"/>
  <line class="cls-1" x1="482.12" y1="191.24" x2="482.12" y2="211.58"/>
  <line class="cls-1" x1="640.74" y1="189.6" x2="640.74" y2="218.1"/>
  <line class="cls-1" x1="613.68" y1="184.89" x2="613.68" y2="204.27"/>
  <line class="cls-1" x1="628.8" y1="137" x2="661.45" y2="157.04"/>
  <line class="cls-1" x1="553.06" y1="162.01" x2="553.06" y2="183.08"/>
  <line class="cls-1" x1="520.06" y1="201.4" x2="553.26" y2="182.24"/>
  <line class="cls-1" x1="628.45" y1="117" x2="628.45" y2="137.33"/>
  <line class="cls-1" x1="553.26" y1="182.24" x2="613.68" y2="204.27"/>
  <line class="cls-1" x1="769.31" y1="78.53" x2="769.31" y2="101.35"/>
  <line class="cls-1" x1="516.1" y1="295.43" x2="516.1" y2="320.34"/>
  <line class="cls-1" x1="413.71" y1="297.86" x2="413.71" y2="320.28"/>
  <line class="cls-1" x1="871.7" y1="76.49" x2="871.7" y2="103.14"/>
  <line class="cls-1" x1="1011.96" y1="263.08" x2="1011.96" y2="280.32"/>
  <line class="cls-1" x1="438.09" y1="353.71" x2="438.09" y2="373.12"/>
  <line class="cls-1" x1="686.66" y1="97.59" x2="686.66" y2="125.66"/>
  <line class="cls-1" x1="696.66" y1="147.27" x2="696.66" y2="164.99"/>
  <line class="cls-1" x1="953.77" y1="61.97" x2="953.77" y2="95.31"/>
  <line class="cls-1" x1="643.81" y1="283.59" x2="643.81" y2="304.04"/>
  <line class="cls-1" x1="582.32" y1="294.76" x2="582.32" y2="325.69"/>
  <line class="cls-1" x1="720.33" y1="239.47" x2="720.33" y2="258.83"/>
  <line class="cls-1" x1="562.32" y1="413.6" x2="562.32" y2="436"/>
  <line class="cls-1" x1="562.32" y1="572.83" x2="562.32" y2="600.27"/>
  <line class="cls-1" x1="509.43" y1="545.24" x2="509.43" y2="572.19"/>
  <line class="cls-1" x1="611.45" y1="545.24" x2="562.32" y2="573.13"/>
  <line class="cls-1" x1="562.32" y1="436" x2="485.52" y2="479.87"/>
  <line class="cls-1" x1="721.24" y1="257.64" x2="643.75" y2="303.94"/>
  <line class="cls-1" x1=".53" y1="475.72" x2=".53" y2="497.1"/>
  <line class="cls-1" x1="231.65" y1="608.77" x2="231.65" y2="631.35"/>
  <line class="cls-1" x1="394.61" y1="471.02" x2="394.61" y2="510.51"/>
  <path class="cls-1" d="M463.14,330.28c-12.69,0-23.77-2.68-32.94-7.98-13.8-7.97-16.6-18.06-16.49-25.19-.09-12.62,9.55-20.85,17.67-25.54,10.02-5.78,21.66-8.76,34.59-8.86h.23c12.88.2,24,2.95,33.05,8.18,13.34,7.7,16.52,17.57,16.83,24.49l.02.34v.34c-.16,7.01-3.41,17.13-18.03,25.57-9.95,5.74-21.37,8.65-33.95,8.65h-.97Z"/>
  <path class="cls-1" d="M423.71,297.16c-.09-6.35,4.13-11.99,12.67-16.92,8.54-4.93,18.43-7.44,29.66-7.52,11.2.17,20.61,2.45,28.21,6.84,7.6,4.39,11.55,9.82,11.84,16.29-.14,6.49-4.49,12.2-13.02,17.13-8.53,4.93-18.31,7.37-29.31,7.31-11.24.08-20.75-2.13-28.56-6.63-7.8-4.51-11.64-10-11.49-16.49Z"/>
  <line class="cls-1" x1="540.37" y1="552.85" x2="1012.58" y2="279.62"/>
</svg>