<?xml version="1.0" encoding="UTF-8"?>
<svg id="_레이어_1" data-name="레이어 1" xmlns="http://www.w3.org/2000/svg" viewBox="0 0 129.14 55.84">
  <defs>
    <style>
      .cls-1 {
        fill: #231815;
      }
    </style>
  </defs>
  <path class="cls-1" d="M0,48.24c.06-.3.12-.6.18-.91.54-2.63,2.6-4.68,5.24-5.22,2.08-.43,3.91.1,5.51,1.46.37.32.76.57,1.22.72.29.09.58.22.87.32.37.13.73.1,1.1-.04.29-.11.58-.25.88-.31,1.34-.25,2.56.03,3.64.88.14.11.27.22.42.34,1.16-1.08,2.51-1.51,4.08-1.23,1.57.27,2.64,1.19,3.37,2.59.06-.09.11-.16.15-.23.72-1.09,1.7-1.8,3-2.03,1.4-.25,2.62.14,3.65,1.1.23.22.42.48.63.72.03.03.06.07.1.13.07-.12.13-.22.19-.32.24-.41.47-.84.73-1.23,1.04-1.56,2.46-2.59,4.32-2.89,2.64-.43,4.8.46,6.42,2.58.76.99,1.16,2.15,1.31,3.39.36,2.98-1.17,5.78-3.82,7.13-.75.38-1.55.57-2.39.61-.07,0-.14.02-.21.03h-.19s-.09-.03-.13-.03c-.35-.04-.7-.05-1.04-.12-1.75-.35-3.18-1.23-4.17-2.74-.31-.46-.56-.96-.83-1.45-.06-.1-.11-.2-.18-.32-1.57,2.57-5.55,3.01-7.53-.16-.77,1.33-1.86,2.24-3.39,2.52-1.55.29-2.88-.2-4.06-1.19-.25.18-.49.35-.74.51-.75.49-1.58.75-2.48.76-.64,0-1.27-.13-1.86-.38-.22-.09-.45-.1-.68-.06-.13.02-.25.05-.37.08-.73.19-1.44.39-2.02.94-.83.78-1.83,1.28-2.96,1.51-.24.05-.48.08-.73.12h-.86c-.05-.01-.11-.03-.16-.04-.44-.09-.88-.14-1.31-.26-1.25-.36-2.34-.99-3.2-1.99-.75-.87-1.2-1.89-1.45-3C.15,50.15.08,49.74,0,49.34,0,48.97,0,48.6,0,48.24Z"/>
  <path class="cls-1" d="M69.51,55.84c-.24-.12-.35-.33-.42-.57-1.72-5.56-3.43-11.12-5.15-16.68-.03-.11-.06-.21-.08-.32-.02-.21.03-.28.23-.31.13-.02.27-.01.4-.01.48,0,.97.01,1.45,0,.61-.02.72.06.89.62,1.24,4.2,2.49,8.4,3.74,12.6.08.26.15.52.25.82.05-.14.08-.24.11-.33.92-3.05,1.85-6.1,2.77-9.16.42-1.39.83-2.77,1.24-4.16.09-.29.21-.39.52-.39.47,0,.94.02,1.41.02.16,0,.32-.02.48-.03.41-.02.6.11.73.51.21.67.4,1.34.6,2.01,1.1,3.66,2.2,7.33,3.3,10.99.05.16.1.32.19.48.03-.08.06-.15.08-.23.64-2.17,1.28-4.33,1.92-6.5.66-2.25,1.32-4.5,1.99-6.75.02-.05.03-.11.05-.16.08-.22.23-.34.47-.34.21,0,.41.02.62.02.42,0,.84-.01,1.27-.02.14,0,.28,0,.46,0-.08.32-.14.61-.23.88-1.54,5.06-3.09,10.12-4.63,15.17-.13.42-.25.84-.37,1.26-.07.25-.18.47-.43.6h-2.44c-.22-.1-.34-.27-.39-.51,0-.03-.02-.06-.03-.09-.98-3.19-1.95-6.39-2.93-9.58-.33-1.09-.67-2.17-1-3.26-.03-.09-.07-.18-.11-.27-.07.07-.1.14-.12.2-.71,2.28-1.41,4.56-2.12,6.84-.64,2.06-1.28,4.12-1.91,6.18-.07.21-.15.4-.37.49h-2.44Z"/>
  <path class="cls-1" d="M90.3,55.84c0-.11,0-.22,0-.33,0-3.81,0-7.62,0-11.42,0-1.82,0-3.65,0-5.47,0-.1,0-.21.01-.31.03-.25.16-.37.41-.38.1,0,.19,0,.29,0,.44,0,.87,0,1.31,0,0,0,.02,0,.02,0,.48-.04.64.1.64.59,0,1.56-.02,3.12-.02,4.68,0,.64.01,1.27.02,1.91,0,.04,0,.08.01.12.18.05,7.67.08,8.24.02,0-.14.02-.29.02-.44,0-2.09,0-4.17,0-6.26,0-.08,0-.16,0-.24.02-.25.14-.37.4-.39.06,0,.13,0,.19,0,.54,0,1.08,0,1.62,0,.35,0,.46.11.46.48,0,2.13,0,4.27,0,6.4,0,3.25,0,6.5,0,9.75,0,.25,0,.49,0,.74,0,.22-.07.4-.24.54h-2.2c-.19-.12-.25-.29-.25-.5,0-.61.01-1.23,0-1.84,0-1.8,0-3.6,0-5.4,0-.06-.01-.12-.02-.18h-8.24c0,.19-.02.36-.02.53,0,2.18,0,4.36,0,6.54,0,.12,0,.24,0,.36,0,.21-.07.39-.27.49h-2.39Z"/>
  <path class="cls-1" d="M105.07,55.84c.31-.86.61-1.72.93-2.58,1.63-4.35,3.27-8.69,4.91-13.04.22-.58.43-1.16.65-1.74.02-.06.04-.12.07-.18.1-.25.29-.37.56-.37.25,0,.51.02.76.02.37,0,.75-.02,1.12-.02.38,0,.51.09.65.44,1.17,2.98,2.33,5.96,3.49,8.93,1.02,2.61,2.05,5.21,3.08,7.81.09.23.15.48.22.73h-2.25s-.09-.04-.13-.04c-.25-.03-.43-.16-.54-.38-.07-.15-.14-.3-.2-.46-.31-.82-.62-1.64-.94-2.45-.28-.71-.57-1.42-.86-2.12-.11-.28-.31-.41-.61-.41-.13,0-.25,0-.38,0-1.71,0-3.43,0-5.14,0-.49,0-.54.03-.71.49-.61,1.62-1.22,3.25-1.83,4.87-.08.22-.19.42-.42.52h-2.44ZM110.8,47.66h4.73c-.02-.07-.04-.13-.06-.19-.77-1.98-1.53-3.96-2.3-5.94,0,0-.01,0-.02,0,0,0-.01,0-.03,0-.77,2.03-1.54,4.07-2.31,6.13Z"/>
  <path class="cls-1" d="M55.16,55.84c-.22-.12-.24-.31-.24-.53,0-1.65,0-3.3,0-4.95,0-3.89,0-7.79,0-11.68,0-.57.07-.64.65-.64,2.05,0,4.09,0,6.14,0,.21,0,.41-.01.62,0,.33.01.44.13.44.46,0,.51,0,1.02,0,1.53,0,.43-.15.49-.48.49-1.33,0-2.66-.02-3.99-.02-.12,0-.24,0-.36.01-.25.03-.35.14-.35.4,0,.29,0,.59,0,.88,0,1.04,0,2.09,0,3.13,0,.45.08.54.54.54,1.18,0,2.36,0,3.54,0,.2,0,.4-.01.6,0,.22.02.34.14.35.35,0,.68,0,1.37,0,2.08-.1,0-.18.01-.27.01-1.3,0-2.6,0-3.9,0-.16,0-.32.02-.47.04-.19.03-.32.15-.34.35-.02.17-.04.33-.04.5,0,1.46,0,2.92,0,4.37,0,.04,0,.08,0,.15.2.01.39.04.59.04,1.38,0,2.76,0,4.13,0,.06,0,.13,0,.19,0,.21.01.3.1.32.31,0,.07,0,.14,0,.21,0,.45,0,.89,0,1.34,0,.06,0,.11,0,.17,0,.21-.07.37-.27.45h-7.41Z"/>
  <path class="cls-1" d="M28.12.92c0,.11,0,.18,0,.25,0,1.61.02,3.22.02,4.83,0,1.14-.02,2.28-.03,3.42,0,.5.14.64.64.64,1.38,0,2.76-.01,4.13-.01,1.07,0,2.13,0,3.2,0,.04,0,.08,0,.12,0,.44,0,.55-.11.56-.54,0-1.47,0-2.95,0-4.42,0-.69.02-1.39.02-2.08,0-.47-.02-.94-.02-1.41,0-.59.12-.72.71-.72,2.18,0,4.36.02,6.55.02.45,0,.89-.01,1.34-.02.09,0,.19,0,.28.02.25.04.37.16.38.41.02.26.01.53.01.79,0,.87,0,1.74,0,2.6,0,1.31,0,2.61,0,3.92,0,.33,0,.65,0,.98,0,.08,0,.16-.01.24-.03.23-.12.32-.34.36-.09.02-.19.01-.29.01-2.67,0-5.34,0-8.01,0h-.3c0,.1-.01.17-.01.25,0,2.72,0,5.43,0,8.15,0,.49.05.54.53.54,2.37,0,4.75,0,7.12,0,.29,0,.59-.02.88,0,.3.02.4.15.42.45.01.29,0,.57,0,.86,0,2.22,0,4.45,0,6.67,0,.25.01.51,0,.76,0,.43-.11.54-.54.54-.33,0-.65,0-.98,0-2.06,0-4.13,0-6.19,0-.34,0-.69,0-1.03,0-.09,0-.18,0-.26-.02-.13-.02-.22-.1-.24-.23-.02-.09-.03-.19-.03-.28,0-.43.02-.86.02-1.29,0-2.26,0-4.52,0-6.79,0-.46-.07-.53-.52-.53-2.55,0-5.1.01-7.65.02-.42,0-.47.04-.5.45-.02.33,0,.65,0,.98,0,2.38.02,4.76.02,7.14,0,.17-.03.34-.04.54h-.31c-2.31,0-4.62,0-6.93,0-.44,0-.88,0-1.31,0-.56,0-.67-.12-.67-.67,0-2.59.01-5.18.02-7.77,0-.1,0-.19,0-.29-.02-.24-.12-.35-.35-.38-.13-.02-.27-.02-.4-.02-1.79,0-3.58,0-5.38,0-.55,0-1.1,0-1.65,0-.19,0-.38.01-.57.02-.19.01-.23.06-.24.26,0,.06,0,.13,0,.19,0,2.05,0,4.09,0,6.14,0,.63.01,1.26.02,1.89,0,.09,0,.19-.02.28-.04.21-.14.31-.35.32-.19.02-.38.01-.57.01-2.32,0-4.64,0-6.95,0-.28,0-.56,0-.84,0-.41,0-.53-.12-.53-.53,0-1.19,0-2.37,0-3.56,0-1.63,0-3.25,0-4.88v-.28c.07-.01.13-.03.19-.03.22,0,.45-.02.67-.02,2.01,0,4.02,0,6.02,0,.45,0,.91,0,1.36,0,.06,0,.11,0,.17,0,.34-.02.47-.16.48-.5,0-.53,0-1.07,0-1.6,0-2.1,0-4.21,0-6.31,0-.17-.02-.34-.03-.54h-.29c-2.58,0-5.16,0-7.74,0-.17,0-.34,0-.5-.02-.21-.03-.3-.14-.32-.35,0-.08,0-.16,0-.24,0-1.8,0-3.6,0-5.4,0-.88,0-1.77,0-2.65,0-.55.13-.68.67-.68,2.2,0,4.4.02,6.6.02.43,0,.86-.02,1.29-.02.11,0,.22.01.33.03.2.03.32.15.35.34.02.12.03.24.03.36,0,2.7-.01,5.4-.02,8.1,0,.09,0,.19,0,.28.19.06,8.21.07,8.59.02v-.25c0-1.07,0-2.13,0-3.2,0-1.56,0-3.12,0-4.68,0-.18,0-.35,0-.53.02-.28.13-.41.41-.44.28-.03.56-.02.83-.02.13,0,.27.02.4.02,2.32,0,4.64,0,6.96,0,.2,0,.39.01.63.02ZM19.26,10.26c0,.13,0,.2,0,.28,0,2.48,0,4.97,0,7.45,0,.25,0,.49,0,.74.01.28.12.38.39.42.07.01.14.01.21.01.24,0,.48,0,.72,0,2.29,0,4.57,0,6.86,0,.06,0,.13,0,.19,0,.14,0,.18-.04.19-.18,0-.06,0-.13,0-.19,0-.96,0-1.91,0-2.87,0-1.71.02-3.42.03-5.14,0-.48-.1-.58-.57-.58-.29,0-.57.02-.86.02-2.22,0-4.44,0-6.67,0-.16,0-.31.02-.49.03Z"/>
  <path class="cls-1" d="M108.23,16.67c-.07.05-.14.09-.21.15-.91.65-1.89,1.11-2.99,1.33-.81.16-1.63.18-2.45.09-.84-.09-1.65-.28-2.43-.59-1.1-.44-1.99-1.13-2.56-2.18-.39-.72-.57-1.5-.62-2.31-.07-1.23.22-2.35.96-3.35.41-.55.9-1.01,1.46-1.4.07-.05.14-.1.24-.16-.05-.08-.1-.15-.15-.22-.22-.31-.46-.61-.67-.93-1.09-1.64-.98-3.82.26-5.35.75-.92,1.72-1.45,2.88-1.64.54-.09,1.07-.13,1.62-.1,1.75.1,3.1.87,4,2.39.32.53.47,1.13.51,1.75.06.96-.12,1.87-.54,2.73-.43.87-1.12,1.46-2.01,1.82-.34.14-.71.23-1.07.34-.04.01-.09.03-.16.05,1.24,1.28,2.45,2.53,3.69,3.82.05-.09.09-.16.12-.24.29-.67.46-1.37.52-2.1.04-.6.04-1.21.06-1.81,0-.09,0-.17,0-.27.08,0,.15-.02.21-.02.64,0,1.27,0,1.91,0,.19,0,.24.04.3.21.03.07.04.15.04.23.06,1.9-.21,3.73-1.11,5.43-.04.07-.07.14-.1.22-.06.17-.04.33.08.47.05.06.11.12.16.17.77.79,1.55,1.58,2.32,2.38.11.11.19.24.32.4-.17,0-.28,0-.4,0-.48.01-.97.04-1.45.04-.32,0-.66,0-.97-.07-.57-.1-1.02-.42-1.36-.89-.11-.16-.24-.29-.43-.4ZM101.28,9.83c-.06.03-.1.05-.13.07-1.12.7-1.69,2.13-1.37,3.43.31,1.24,1.13,2,2.31,2.39.85.28,1.71.24,2.57.06.64-.13,1.22-.4,1.72-.83.05-.04.08-.09.13-.14-1.75-1.67-3.49-3.32-5.24-4.99ZM100.62,4.67c0,1.38.97,2.48,2.52,2.49,1.4,0,2.49-1,2.49-2.49,0-1.44-1.07-2.5-2.49-2.5-1.52,0-2.49.98-2.51,2.5Z"/>
  <path class="cls-1" d="M126.47,32.55s.04-.02.05-.02c0,0,0-.01,0-.02,0,0,0-.02,0-.02,0,0,0-.02,0-.02,0,0,0-.02,0-.02,0-.02,0-.03,0-.05,0,0,0-.02,0-.02,0-.02,0-.03,0-.05,0-4.27,0-8.54,0-12.81,0-.02,0-.03,0-.05,0,0,0-.02,0-.02,0,0,0-.02,0-.02,0,0,0-.02,0-.02,0,0,0-.01,0-.02.16-.05,2.21-.07,2.54-.01,0,.22.02.45.02.68,0,4.48,0,8.95,0,13.43,0,1.04,0,2.07.01,3.11,0,.11,0,.22-.02.33-.02.19-.09.26-.27.27-.56.01-1.11.02-1.67.02-.47,0-.85-.2-1.13-.57-.1-.13-.19-.26-.27-.39-.51-.93-1.14-1.79-1.72-2.67-1.06-1.59-2.13-3.17-3.2-4.76-1.02-1.51-2.04-3.03-3.05-4.54-.06-.09-.13-.17-.2-.25-.02,0-.03.01-.05.02v.23c0,3.43,0,6.87,0,10.3,0,.63,0,1.26,0,1.89,0,.06,0,.11,0,.17,0,.45-.14.57-.6.57-.52-.01-1.03-.02-1.55-.02-.06,0-.13,0-.19,0-.18-.01-.27-.09-.3-.28,0-.07,0-.14,0-.21,0-5.63,0-11.26,0-16.9,0-.39.18-.48.52-.48.6,0,1.21,0,1.81,0,.27,0,.48.09.63.31.13.2.27.4.4.6,1.38,2.08,2.76,4.17,4.14,6.26,1.31,1.99,2.63,3.97,3.94,5.96.04.05.08.1.11.15Z"/>
  <path class="cls-1" d="M109.91,37.15v-1.17c-.18.1-.33.19-.48.28-.63.38-1.29.69-2,.89-1.05.3-2.12.38-3.21.3-.97-.07-1.91-.24-2.81-.6-2.41-.96-4.07-2.67-4.95-5.12-.51-1.43-.66-2.92-.55-4.42.17-2.28,1.07-4.24,2.65-5.88,1.08-1.12,2.42-1.82,3.93-2.2.79-.19,1.59-.29,2.41-.31,1.03-.03,2.04.07,3.02.36,1.23.37,2.33.97,3.23,1.91.2.21.41.42.62.63.2.21.19.36-.03.54-.46.39-.93.77-1.4,1.16-.24.2-.38.18-.62-.04-.3-.29-.58-.59-.91-.84-.84-.66-1.8-1.02-2.86-1.17-.99-.14-1.98-.12-2.92.23-2.3.84-3.73,2.45-4.19,4.87-.23,1.2-.25,2.41.06,3.6.43,1.68,1.34,3.03,2.83,3.96.77.48,1.63.72,2.52.81.87.09,1.73.07,2.59-.12.95-.21,1.8-.63,2.54-1.25.27-.22.41-.5.42-.85.01-.69.02-1.38.02-2.08,0-.34-.12-.47-.46-.46-.76,0-1.53.02-2.29.04-.08,0-.16,0-.24-.03-.16-.04-.23-.11-.24-.28,0-.1,0-.21,0-.31,0-.39,0-.78,0-1.17,0-.06,0-.11,0-.17,0-.26.11-.36.36-.38.06,0,.11,0,.17,0,1.6,0,3.2,0,4.8,0,.48,0,.56.13.55.56,0,.1,0,.19,0,.29,0,2.39,0,4.78,0,7.17,0,.26,0,.53,0,.79,0,.07,0,.14-.01.21-.03.14-.11.25-.27.27-.07,0-.14.03-.21.03-.61,0-1.23-.01-1.84-.02-.07,0-.14,0-.24-.01Z"/>
  <path class="cls-1" d="M54.93,19.3c.29,0,.54,0,.79,0,.78,0,1.56-.03,2.34-.02,1.2.02,2.38.12,3.53.51,1.66.57,3.04,1.51,4.05,2.96.62.89,1,1.88,1.23,2.93.23,1.05.35,2.11.28,3.18-.13,2.07-.78,3.96-2.14,5.56-1.01,1.18-2.3,1.91-3.8,2.29-.78.2-1.58.29-2.38.33-1.1.05-2.19.08-3.29.12-.07,0-.14.01-.21.02-.26.01-.39-.11-.39-.37,0-.16,0-.32,0-.48,0-5.58,0-11.17,0-16.75v-.28ZM57.61,34.76c.11,0,.2,0,.28,0,.25-.01.49-.03.74-.04.54-.02,1.06-.11,1.58-.25,1.27-.35,2.3-1.03,3.04-2.13.64-.96.96-2.03,1.06-3.18.05-.65.03-1.3-.01-1.96-.03-.48-.1-.95-.23-1.41-.47-1.57-1.39-2.76-2.88-3.48-.92-.45-1.91-.6-2.92-.63-.56-.02-.66.09-.66.64,0,1.61,0,3.22,0,4.83,0,2.44,0,4.88,0,7.31v.3Z"/>
  <path class="cls-1" d="M78.99,9.91c1.47,2.81,2.95,5.62,4.43,8.44-.15.05-.4.06-.66.05-.37-.01-.73,0-1.1,0-.16,0-.32.01-.48.02-.38.02-.67-.15-.86-.46-.16-.26-.3-.54-.44-.82-1.09-2.11-2.18-4.21-3.26-6.32-.16-.31-.38-.47-.74-.44-.33.02-.65,0-.98,0-.35,0-.47.11-.47.47,0,.65,0,1.31,0,1.96,0,1.7,0,3.39,0,5.09,0,.42-.09.51-.5.51-.6,0-1.19,0-1.79,0-.28,0-.38-.1-.38-.37,0-1.98,0-3.97,0-5.95,0-1.91,0-3.82,0-5.74,0-1.78,0-3.55,0-5.33,0-.39.05-.54.53-.52.59.02,1.18,0,1.77.01.83.01,1.66.02,2.48.05.63.02,1.26.03,1.87.19,1.65.41,2.7,1.43,3.11,3.08.25.99.26,1.99.03,2.98-.31,1.34-1.12,2.3-2.31,2.95-.06.03-.13.07-.19.1-.01,0-.02.02-.05.05ZM74.43,8.07c.09,0,.14,0,.2,0,.53,0,1.07.01,1.6,0,.29,0,.59-.04.88-.09.67-.13,1.19-.49,1.49-1.12.31-.66.42-1.35.29-2.07-.19-1.07-1.02-1.82-2.11-1.87-.64-.03-1.29-.04-1.93-.05-.29,0-.4.11-.41.4,0,.25,0,.51,0,.76,0,1.25,0,2.5,0,3.75,0,.09,0,.17,0,.28Z"/>
  <path class="cls-1" d="M70.58,18.38c-.12,0-.19.01-.27.01-.56,0-1.12,0-1.67,0-.18,0-.37-.02-.55-.02-.13,0-.24-.05-.3-.16-.07-.11-.14-.23-.19-.35-.62-1.58-1.24-3.15-1.85-4.73,0-.02-.01-.05-.02-.07-.18-.47-.38-.58-.9-.55-.4.02-.8.01-1.19.01-1.33,0-2.66,0-3.99,0-.06,0-.11,0-.17,0-.37,0-.51.1-.65.45-.27.71-.52,1.42-.79,2.12-.36.95-.73,1.9-1.09,2.85-.1.27-.28.42-.57.43-.31.01-.62.02-.93.02-.3,0-.61,0-.91,0-.3,0-.4-.12-.3-.41.15-.43.32-.85.48-1.27,1.97-5.23,3.93-10.47,5.9-15.7.03-.07.05-.13.08-.2.1-.23.28-.34.53-.34.21,0,.41.01.62.01.41,0,.81,0,1.22-.01.41,0,.56.07.71.46.59,1.5,1.17,2.99,1.76,4.49,1.61,4.09,3.22,8.19,4.82,12.28.08.21.15.43.23.67ZM59.86,10.19c.34.05,4.54.04,4.72-.01-.79-2.03-1.57-4.05-2.36-6.08-.02,0-.03,0-.05,0-.77,2.02-1.53,4.05-2.31,6.09Z"/>
  <path class="cls-1" d="M86.46,24.04c-.04-.17-.08-.34-.13-.51-.08-.28-.14-.56-.24-.82-.28-.72-.79-1.18-1.55-1.35-.46-.11-.93-.13-1.4-.04-.91.17-1.58.86-1.73,1.78-.06.37-.07.74.02,1.11.16.65.53,1.14,1.12,1.44.56.29,1.14.54,1.71.79.92.41,1.83.83,2.7,1.33.6.35,1.12.79,1.54,1.34.53.69.81,1.48.88,2.33.08.93-.02,1.85-.34,2.73-.62,1.68-1.84,2.69-3.57,3.1-.74.17-1.5.18-2.26.12-.45-.03-.91-.08-1.34-.2-1.85-.5-2.96-1.72-3.37-3.58-.08-.35-.1-.71-.14-1.06-.02-.17-.04-.35-.05-.52-.01-.25.08-.35.33-.35.45,0,.89,0,1.34,0,.15,0,.3-.01.45-.02.29-.02.41.07.47.36.06.3.1.6.17.89.07.28.16.57.28.83.38.77,1.02,1.2,1.86,1.35.65.12,1.29.02,1.9-.22.88-.35,1.35-1.02,1.51-1.94.07-.4.07-.79-.02-1.19-.17-.75-.59-1.32-1.26-1.69-.9-.5-1.85-.92-2.8-1.33-.45-.19-.92-.37-1.34-.61-1.63-.94-2.44-2.36-2.48-4.23-.02-.69.1-1.36.33-2.01.38-1.07,1.08-1.86,2.09-2.34,1.66-.78,3.37-.85,5.07-.15,1.47.61,2.31,1.76,2.55,3.32.06.38.04.78.05,1.17,0,.05-.01.11-.02.17h-2.34Z"/>
  <path class="cls-1" d="M71.77,21.78c-.02.18-.05.35-.05.51,0,1.31,0,2.63,0,3.94,0,.08.02.16.04.23.03.12.11.19.24.21.09.01.17.01.26.01,1.3,0,2.6,0,3.9,0,.11,0,.22,0,.33.02.23.05.33.16.34.39,0,.09,0,.18,0,.26,0,.41,0,.83,0,1.24,0,.09,0,.18,0,.26-.03.15-.11.27-.27.3-.11.02-.22.04-.33.04-1.27,0-2.55,0-3.82,0-.06,0-.11,0-.17,0-.4,0-.51.12-.51.51.01.96.02,1.91.03,2.87,0,.51-.01,1.02-.02,1.53,0,.05,0,.1,0,.14.02.29.13.41.42.41,1.23,0,2.45,0,3.68,0,.24,0,.48,0,.72,0,.34.01.48.15.48.49,0,.52,0,1.04,0,1.55,0,.34-.11.46-.45.49-.21.02-.43,0-.65,0-.73,0-1.46-.02-2.2-.02-1.43,0-2.85,0-4.28,0h-.28c-.06-.18-.08-17.34-.03-17.83.18,0,.37-.02.56-.02,1.86,0,3.73,0,5.59,0,.32,0,.64-.01.95-.02.04,0,.08,0,.12,0,.49.01.59.17.57.59-.02.43,0,.86,0,1.29,0,.06,0,.13,0,.19,0,.28-.13.41-.41.42-.32,0-.64,0-.96,0-.72,0-1.45,0-2.17,0-.46,0-.92,0-1.39,0-.06,0-.13,0-.22.01Z"/>
  <path class="cls-1" d="M92.65,2.97h-3.65v15.38c-.06.01-.1.02-.14.02-.72,0-1.43,0-2.15,0-.26,0-.35-.1-.38-.36,0-.09-.01-.17-.01-.26,0-3.89,0-7.77,0-11.66,0-.84,0-1.67,0-2.51,0-.09,0-.18-.01-.26-.04-.25-.15-.35-.4-.36-.17,0-.33,0-.5,0-.85,0-1.7,0-2.56,0-.04,0-.08,0-.13,0,0-.06-.02-.11-.02-.16,0-.65,0-1.29,0-1.94,0-.27.09-.36.35-.37.06,0,.13,0,.19,0,2.88,0,5.75,0,8.63,0,.14,0,.27,0,.41,0,.27.02.37.12.37.39,0,.47,0,.94,0,1.41,0,.21,0,.43,0,.68Z"/>
  <path class="cls-1" d="M93.95,19.32v.34c0,3.98,0,7.97,0,11.95,0,1.64.01,3.28.02,4.92,0,.11-.01.22-.03.33-.03.19-.15.29-.33.32-.07.01-.14,0-.21,0-.54,0-1.08-.01-1.62-.02-.06,0-.11,0-.17,0-.2-.02-.29-.1-.3-.3,0-.06,0-.11,0-.17,0-5.62,0-11.25,0-16.87,0-.47.04-.52.52-.52.62,0,1.24,0,1.86,0,.08,0,.16,0,.26.01Z"/>
  <path class="cls-1" d="M43.15,38.04c-.38-.04-.76-.06-1.14-.13-.95-.18-1.61-.97-1.72-1.93-.07-.61.05-1.17.43-1.67.44-.57,1.04-.85,1.75-.88.37-.02.73-.02,1.1-.02,1.12,0,2.02.82,2.17,1.93.08.64-.04,1.24-.42,1.76-.42.57-1,.85-1.69.89-.16,0-.32,0-.48,0,0,.01,0,.02,0,.03Z"/>
  <path class="cls-1" d="M11.82,38.03c-.3-.02-.6-.01-.9-.06-1.15-.16-2.18-1.54-1.73-2.91.07-.22.17-.45.3-.65.45-.74,1.13-1.04,1.98-.98.21.01.43.02.64,0,.83-.04,1.53.22,2.03.89.55.75.58,1.57.2,2.39-.37.81-1.04,1.22-1.92,1.28-.2.01-.4,0-.6,0,0,0,0,.02,0,.02Z"/>
  <path class="cls-1" d="M35.32,38.03c-.36-.04-.73-.05-1.09-.12-.96-.19-1.64-.96-1.72-1.94-.06-.74.11-1.4.67-1.93.31-.29.68-.49,1.09-.55.63-.09,1.27-.1,1.9-.03.46.05.85.27,1.15.61.62.71.84,1.52.52,2.44-.31.88-1.16,1.48-2.1,1.49-.14,0-.29,0-.43,0,0,0,0,.02,0,.03Z"/>
  <path class="cls-1" d="M4.11,38c-.44.01-.87,0-1.3-.14-.88-.29-1.42-.99-1.47-1.91-.01-.25-.01-.51.02-.76.15-1.06,1.38-1.96,2.37-1.75.17.03.35,0,.52-.02.32-.02.64-.02.95.07.72.21,1.17.72,1.42,1.4.41,1.1-.02,2.3-1,2.85-.32.18-.66.27-1.03.27-.16,0-.32,0-.48,0Z"/>
  <path class="cls-1" d="M27.43,38.03c-.31-.02-.62-.02-.93-.07-.92-.16-1.61-.89-1.75-1.82-.11-.72.01-1.38.49-1.95.38-.47.89-.71,1.49-.75.41-.03.83-.02,1.24-.02,1.46.01,2.3,1.36,2.2,2.46-.09.99-.76,1.85-1.67,2.07-.09.02-.19.05-.28.05-.26,0-.53,0-.79,0,0,.01,0,.02,0,.04Z"/>
  <path class="cls-1" d="M19.58,38.04c-.3-.02-.6-.03-.9-.07-.46-.07-.84-.3-1.14-.64-1.27-1.44-.53-3.08.54-3.66.34-.18.69-.26,1.08-.22.24.02.5.04.74,0,.67-.1,1.22.11,1.71.55,1.31,1.18.74,3.12-.36,3.71-.32.17-.66.28-1.02.3-.21.01-.43,0-.64,0,0,.01,0,.02,0,.03Z"/>
</svg>